<svg width="38" height="23" viewBox="0 0 38 23" fill="none" xmlns="http://www.w3.org/2000/svg">
<path fill-rule="evenodd" clip-rule="evenodd" d="M31.7503 7.31747V15.9482L38 18.8934V11.6328V4.37223L31.7503 7.31747ZM14.9287 9.98796L11.9904 8.34295V11.6328L11.9908 14.9242L14.9306 13.2785V13.2781L17.8693 11.6336L14.9287 9.98796ZM25.7557 0.632812H2.14256C1.56143 0.632812 1.02994 0.898044 0.643718 1.32473C0.246835 1.76287 0 2.37164 0 3.04336V20.2223C0 20.894 0.246835 21.5028 0.643718 21.9409C1.02994 22.3676 1.56143 22.6328 2.14256 22.6328H25.7557C26.3364 22.6328 26.8675 22.3668 27.2553 21.9401C27.6518 21.5019 27.8986 20.8937 27.8986 20.2223V3.04336C27.8986 2.37966 27.6573 1.77662 27.2683 1.33967L27.2549 1.32617C26.8675 0.899079 26.3364 0.633087 25.7557 0.633087L25.7557 0.632812ZM22.8071 11.6328C22.8071 14.0037 21.8154 16.1512 20.213 17.7045C18.6106 19.2578 16.3952 20.2193 13.9495 20.2193C11.503 20.2193 9.28795 19.2578 7.68558 17.7045L7.66658 17.6843C6.07445 16.1314 5.09091 13.9926 5.09091 11.6324C5.09091 9.2628 6.08266 7.11594 7.68626 5.5615C9.28863 4.00813 11.5037 3.04678 13.9502 3.04678C16.3959 3.04678 18.6113 4.00813 20.2137 5.5615C21.8161 7.11482 22.8078 9.26234 22.8078 11.6332L22.8071 11.6328Z" fill="#01576E"/>
</svg>
