<?xml version="1.0" standalone="no"?>
<!DOCTYPE svg PUBLIC "-//W3C//DTD SVG 1.0//EN" "http://www.w3.org/TR/2001/REC-SVG-20010904/DTD/svg10.dtd">
<svg xmlns="http://www.w3.org/2000/svg" xmlns:xlink="http://www.w3.org/1999/xlink" id="body_1" width="35" height="35">

<g transform="matrix(0.121527776 0 0 0.121527776 0 0)">
	<g transform="matrix(12 0 0 12 30 -0)">
	</g>
    <path transform="matrix(12 0 0 12 30 -0)"  d="M18.2459 0.0957863C 18.2675 0.0741442 18.2851 0.0476927 18.3074 0.0268522C 14.7313 0.0132257 6.18137 0.00360701 1.19186 0C 0.619906 0 0.154364 0.480133 0.154364 1.07048L0.154364 1.07048L0.109375 19.5232L11.6853 19.4771C 11.728 19.4771 11.7706 19.4859 11.8089 19.5027C 11.8187 19.5071 11.8258 19.5159 11.8352 19.5212C 11.8621 19.5364 11.8895 19.552 11.9114 19.5753C 11.9251 19.5897 11.9314 19.6089 11.942 19.6254C 11.9541 19.645 11.9701 19.6626 11.9779 19.6843C 11.9846 19.7031 11.9834 19.7235 11.9869 19.7432C 11.9909 19.766 11.9983 19.7877 11.9971 19.8113L11.9971 19.8113L11.9971 19.8173C 11.9114 21.6441 12.1419 22.8252 12.7013 23.4284C 13.0675 23.8231 13.6007 23.9991 14.4304 23.9991L14.4304 23.9991L14.6589 23.9991C 16.1768 23.9991 17.4119 22.7266 17.4119 21.1619L17.4119 21.1619L17.4119 5.47545L17.4119 2.13054L17.4119 2.08325C 17.4119 2.0051 17.4197 1.92775 17.4318 1.8512C 17.4322 1.84839 17.433 1.84599 17.4334 1.84318C 17.4506 1.6953 17.4803 1.55021 17.5175 1.40794C 17.532 1.35063 17.5468 1.29412 17.5644 1.23841C 17.5997 1.1298 17.6396 1.02319 17.6857 0.920189C 17.7186 0.846045 17.7554 0.775508 17.7937 0.705772C 17.8238 0.650865 17.8571 0.597963 17.8903 0.545461C 17.9467 0.457289 18.0053 0.373125 18.0699 0.293771C 18.1258 0.224436 18.1841 0.158709 18.2459 0.0957863zM1.73838 2.49886C 1.73838 2.32252 1.87765 2.17944 2.04939 2.17944L2.04939 2.17944L15.6491 2.17944C 15.8208 2.17944 15.9601 2.32252 15.9601 2.49886L15.9601 2.49886L15.9601 6.1195C 15.9601 6.29584 15.8208 6.43892 15.6491 6.43892L15.6491 6.43892L2.04939 6.43892C 1.87765 6.43892 1.73838 6.29584 1.73838 6.1195L1.73838 6.1195L1.73838 2.49886zM15.9601 9.6163C 15.9601 9.79264 15.8208 9.93532 15.6491 9.93532L15.6491 9.93532L2.51043 9.93532C 2.33869 9.93532 2.19942 9.79224 2.19942 9.6163C 2.19942 9.43995 2.33869 9.29688 2.51043 9.29688L2.51043 9.29688L15.6495 9.29688C 15.8208 9.29688 15.9601 9.43995 15.9601 9.6163zM15.7559 16.9882L2.24265 16.9882C 2.07091 16.9882 1.93164 16.8452 1.93164 16.6688C 1.93164 16.4925 2.07091 16.3498 2.24265 16.3498L2.24265 16.3498L15.7559 16.3498C 15.9276 16.3498 16.0669 16.4929 16.0669 16.6688C 16.0669 16.8452 15.9276 16.9882 15.7559 16.9882zM15.7559 13.4618L2.24265 13.4618C 2.07091 13.4618 1.93164 13.3187 1.93164 13.1428C 1.93164 12.9668 2.07091 12.8237 2.24265 12.8237L2.24265 12.8237L15.7559 12.8237C 15.9276 12.8237 16.0669 12.9668 16.0669 13.1428C 16.0669 13.3187 15.9276 13.4618 15.7559 13.4618z" stroke="none" fill="#01576E" fill-rule="nonzero" />
</g>
</svg>