<svg width="24" height="44" viewBox="0 0 24 44" fill="none" xmlns="http://www.w3.org/2000/svg">
<path d="M23.995 14.5249V27.8208C24.051 29.0198 23.6321 30.1924 22.8295 31.0828C22.027 31.9732 20.906 32.5091 19.7111 32.5736H12.8568V42.0277H20.5679C20.7951 42.0277 21.013 42.1182 21.1737 42.2794C21.3344 42.4406 21.4247 42.6592 21.4247 42.8871C21.4247 43.1151 21.3344 43.3337 21.1737 43.4949C21.013 43.6561 20.7951 43.7466 20.5679 43.7466H3.43212C3.20489 43.7466 2.98696 43.6561 2.82628 43.4949C2.6656 43.3337 2.57534 43.1151 2.57534 42.8871C2.57534 42.6592 2.6656 42.4406 2.82628 42.2794C2.98696 42.1182 3.20489 42.0277 3.43212 42.0277H11.1432V32.5736H4.28891C3.094 32.5091 1.97301 31.9732 1.17046 31.0828C0.367918 30.1924 -0.051044 29.0198 0.00497386 27.8208V13.6654C0.00497386 13.4374 0.0952416 13.2188 0.25592 13.0577C0.416599 12.8965 0.634527 12.8059 0.861762 12.8059C1.089 12.8059 1.30692 12.8965 1.4676 13.0577C1.62828 13.2188 1.71855 13.4374 1.71855 13.6654V27.8208C1.66389 28.5638 1.90286 29.2985 2.38382 29.8662C2.86478 30.4339 3.54911 30.789 4.28891 30.8547H19.7111C20.4509 30.789 21.1352 30.4339 21.6162 29.8662C22.0971 29.2985 22.3361 28.5638 22.2815 27.8208V14.5249C22.2815 14.2969 22.3717 14.0783 22.5324 13.9171C22.6931 13.7559 22.911 13.6654 23.1382 13.6654C23.3655 13.6654 23.5834 13.7559 23.7441 13.9171C23.9048 14.0783 23.995 14.2969 23.995 14.5249ZM2.57534 24.8384V5.07076C2.57534 3.93104 3.02668 2.838 3.83007 2.03209C4.63347 1.22619 5.7231 0.773438 6.85927 0.773438H17.1407C18.2769 0.773438 19.3665 1.22619 20.1699 2.03209C20.9733 2.838 21.4247 3.93104 21.4247 5.07076V24.8384C21.4247 25.9781 20.9733 27.0712 20.1699 27.8771C19.3665 28.683 18.2769 29.1357 17.1407 29.1357H6.85927C5.7231 29.1357 4.63347 28.683 3.83007 27.8771C3.02668 27.0712 2.57534 25.9781 2.57534 24.8384ZM16.2839 16.2438C16.2839 16.4717 16.3742 16.6903 16.5349 16.8515C16.6956 17.0127 16.9135 17.1032 17.1407 17.1032C17.368 17.1032 17.5859 17.0127 17.7466 16.8515C17.9072 16.6903 17.9975 16.4717 17.9975 16.2438V10.2275C17.9975 9.99959 17.9072 9.78098 17.7466 9.6198C17.5859 9.45862 17.368 9.36807 17.1407 9.36807C16.9135 9.36807 16.6956 9.45862 16.5349 9.6198C16.3742 9.78098 16.2839 9.99959 16.2839 10.2275V16.2438ZM13.7136 15.3843C13.7136 15.6123 13.8038 15.8309 13.9645 15.9921C14.1252 16.1532 14.3431 16.2438 14.5704 16.2438C14.7976 16.2438 15.0155 16.1532 15.1762 15.9921C15.3369 15.8309 15.4272 15.6123 15.4272 15.3843V11.9465C15.4272 11.7185 15.3369 11.4999 15.1762 11.3387C15.0155 11.1775 14.7976 11.087 14.5704 11.087C14.3431 11.087 14.1252 11.1775 13.9645 11.3387C13.8038 11.4999 13.7136 11.7185 13.7136 11.9465V15.3843ZM11.1432 19.6816C11.1432 19.9096 11.2335 20.1282 11.3942 20.2894C11.5548 20.4505 11.7728 20.5411 12 20.5411C12.2272 20.5411 12.4452 20.4505 12.6058 20.2894C12.7665 20.1282 12.8568 19.9096 12.8568 19.6816V5.93022C12.8568 5.70227 12.7665 5.48367 12.6058 5.32249C12.4452 5.16131 12.2272 5.07076 12 5.07076C11.7728 5.07076 11.5548 5.16131 11.3942 5.32249C11.2335 5.48367 11.1432 5.70227 11.1432 5.93022V19.6816ZM8.57285 15.3843C8.57285 15.6123 8.66312 15.8309 8.8238 15.9921C8.98448 16.1532 9.2024 16.2438 9.42964 16.2438C9.65687 16.2438 9.8748 16.1532 10.0355 15.9921C10.1962 15.8309 10.2864 15.6123 10.2864 15.3843V11.9465C10.2864 11.7185 10.1962 11.4999 10.0355 11.3387C9.8748 11.1775 9.65687 11.087 9.42964 11.087C9.2024 11.087 8.98448 11.1775 8.8238 11.3387C8.66312 11.4999 8.57285 11.7185 8.57285 11.9465V15.3843ZM6.00249 16.2438C6.00249 16.4717 6.09275 16.6903 6.25343 16.8515C6.41411 17.0127 6.63204 17.1032 6.85927 17.1032C7.08651 17.1032 7.30444 17.0127 7.46512 16.8515C7.62579 16.6903 7.71606 16.4717 7.71606 16.2438V10.2275C7.71606 9.99959 7.62579 9.78098 7.46512 9.6198C7.30444 9.45862 7.08651 9.36807 6.85927 9.36807C6.63204 9.36807 6.41411 9.45862 6.25343 9.6198C6.09275 9.78098 6.00249 9.99959 6.00249 10.2275V16.2438Z" fill="#01576E"/>
</svg>
