<svg width="24" height="15" viewBox="0 0 24 15" fill="none" xmlns="http://www.w3.org/2000/svg">
<path fill-rule="evenodd" clip-rule="evenodd" d="M20.0528 4.41961V10.1258L24 12.0731V7.27275V2.47234L20.0528 4.41961ZM9.42863 6.18522L7.57291 5.09761V7.27275L7.57314 9.44884L9.42987 8.36077V8.36055L11.2859 7.27325L9.42863 6.18522ZM16.2667 0H1.3532C0.986164 0 0.650486 0.17536 0.406559 0.457467C0.155896 0.747146 0 1.14964 0 1.59375V12.9518C0 13.3958 0.155896 13.7983 0.406559 14.088C0.650486 14.3701 0.986164 14.5455 1.3532 14.5455H16.2667C16.6335 14.5455 16.9689 14.3696 17.2139 14.0874C17.4643 13.7978 17.6202 13.3956 17.6202 12.9518V1.59375C17.6202 1.15494 17.4678 0.756237 17.2221 0.467345L17.2136 0.458418C16.9689 0.176044 16.6335 0.000181247 16.2667 0.000181247L16.2667 0ZM14.4045 7.27275C14.4045 8.84024 13.7781 10.2601 12.7661 11.287C11.7541 12.3141 10.3549 12.9497 8.8102 12.9497C7.26507 12.9497 5.86607 12.3141 4.85405 11.287L4.84205 11.2737C3.83649 10.247 3.21531 8.8329 3.21531 7.27248C3.21531 5.70578 3.84168 4.28636 4.85448 3.25863C5.8665 2.23162 7.26549 1.59601 8.81063 1.59601C10.3553 1.59601 11.7545 2.23162 12.7665 3.25863C13.7786 4.28562 14.4049 5.70547 14.4049 7.27298L14.4045 7.27275Z" fill="black"/>
</svg>
