<?xml version="1.0" encoding="utf-8"?>
<!-- Generator: Adobe Illustrator 24.3.0, SVG Export Plug-In . SVG Version: 6.00 Build 0)  -->
<svg version="1.1" id="Layer_1" xmlns="http://www.w3.org/2000/svg" xmlns:xlink="http://www.w3.org/1999/xlink" x="0px" y="0px"
	 viewBox="0 0 122.5 33.7" style="enable-background:new 0 0 122.5 33.7;" xml:space="preserve">
<style type="text/css">
	.st0{fill:url(#SVGID_1_);}
	.st1{fill:url(#SVGID_2_);}
	.st2{fill:url(#SVGID_3_);}
	.st3{fill:url(#SVGID_4_);}
	.st4{fill:url(#SVGID_5_);}
	.st5{fill:url(#SVGID_6_);}
	.st6{fill:url(#SVGID_7_);}
	.st7{fill:url(#SVGID_8_);}
	.st8{fill:#FFFFFF;}
	.st9{fill:url(#SVGID_9_);}
	.st10{fill:url(#SVGID_10_);}
	.st11{fill:url(#SVGID_11_);}
	.st12{fill:url(#SVGID_12_);}
	.st13{fill:url(#SVGID_13_);}
	.st14{fill:url(#SVGID_14_);}
	.st15{fill:url(#SVGID_15_);}
	.st16{fill:url(#SVGID_16_);}
</style>
<g id="Layer_2_1_">
	<g id="Layer_1-2">
		
			<linearGradient id="SVGID_1_" gradientUnits="userSpaceOnUse" x1="6.526" y1="35.9092" x2="4.526" y2="21.6592" gradientTransform="matrix(1 0 0 -1 0 36)">
			<stop  offset="0" style="stop-color:#0BC2C6"/>
			<stop  offset="0.18" style="stop-color:#2AC5BB"/>
			<stop  offset="0.57" style="stop-color:#68CCA4"/>
			<stop  offset="0.85" style="stop-color:#8FCF96"/>
			<stop  offset="1" style="stop-color:#9ED191"/>
		</linearGradient>
		<polyline class="st0" points="6.3,1.5 12.7,2.5 3.8,14.8 0,0.2 		"/>
		
			<linearGradient id="SVGID_2_" gradientUnits="userSpaceOnUse" x1="6.3449" y1="17.3093" x2="4.4349" y2="3.9193" gradientTransform="matrix(1 0 0 -1 0 36)">
			<stop  offset="0" style="stop-color:#DC2859"/>
			<stop  offset="1" style="stop-color:#FF9E81"/>
		</linearGradient>
		<polyline class="st1" points="6.3,18.9 12.7,19.8 3.8,32.1 0,17.5 		"/>
		
			<linearGradient id="SVGID_3_" gradientUnits="userSpaceOnUse" x1="19.045" y1="33.7" x2="19.045" y2="20.31" gradientTransform="matrix(1 0 0 -1 0 36)">
			<stop  offset="0" style="stop-color:#DC2859"/>
			<stop  offset="1" style="stop-color:#FF9E81"/>
		</linearGradient>
		<polygon class="st2" points="12.7,2.5 19,16.4 25.4,2.5 19,2.5 		"/>
		
			<linearGradient id="SVGID_4_" gradientUnits="userSpaceOnUse" x1="9.4252" y1="35.4993" x2="7.4152" y2="21.2493" gradientTransform="matrix(1 0 0 -1 0 36)">
			<stop  offset="0" style="stop-color:#0BC2C6"/>
			<stop  offset="0.18" style="stop-color:#2AC5BB"/>
			<stop  offset="0.57" style="stop-color:#68CCA4"/>
			<stop  offset="0.85" style="stop-color:#8FCF96"/>
			<stop  offset="1" style="stop-color:#9ED191"/>
		</linearGradient>
		<polygon class="st3" points="6.3,1.5 3.8,14.8 12.7,2.5 		"/>
		
			<linearGradient id="SVGID_5_" gradientUnits="userSpaceOnUse" x1="19.0572" y1="16.4301" x2="18.2872" y2="1.3201" gradientTransform="matrix(1 0 0 -1 0 36)">
			<stop  offset="0" style="stop-color:#0052CC"/>
			<stop  offset="1" style="stop-color:#63C6F1"/>
		</linearGradient>
		<polygon class="st4" points="12.7,19.8 19,33.7 25.4,19.8 19,19.8 		"/>
		
			<linearGradient id="SVGID_6_" gradientUnits="userSpaceOnUse" x1="9.2542" y1="16.8994" x2="7.3442" y2="3.5094" gradientTransform="matrix(1 0 0 -1 0 36)">
			<stop  offset="0" style="stop-color:#DC2859"/>
			<stop  offset="1" style="stop-color:#FF9E81"/>
		</linearGradient>
		<polygon class="st5" points="6.3,18.9 3.8,32.1 12.7,19.8 		"/>
		
			<linearGradient id="SVGID_7_" gradientUnits="userSpaceOnUse" x1="22.215" y1="33.7" x2="22.215" y2="20.31" gradientTransform="matrix(1 0 0 -1 0 36)">
			<stop  offset="0" style="stop-color:#DC2859"/>
			<stop  offset="1" style="stop-color:#FF9E81"/>
		</linearGradient>
		<polygon class="st6" points="19,2.5 25.4,2.5 19,16.4 		"/>
		
			<linearGradient id="SVGID_8_" gradientUnits="userSpaceOnUse" x1="22.219" y1="16.2701" x2="21.459" y2="1.16" gradientTransform="matrix(1 0 0 -1 0 36)">
			<stop  offset="0" style="stop-color:#0052CC"/>
			<stop  offset="1" style="stop-color:#63C6F1"/>
		</linearGradient>
		<polygon class="st7" points="19,19.8 25.4,19.8 19,33.7 		"/>
		<polygon class="st8" points="31.7,1.4 38.1,0 34.2,15.2 		"/>
		
			<linearGradient id="SVGID_9_" gradientUnits="userSpaceOnUse" x1="31.9031" y1="33.8005" x2="34.2031" y2="20.4105" gradientTransform="matrix(1 0 0 -1 0 36)">
			<stop  offset="0" style="stop-color:#0052CC"/>
			<stop  offset="1" style="stop-color:#63C6F1"/>
		</linearGradient>
		<polygon class="st9" points="31.5,1.4 25.4,2.5 34.2,15.2 38.1,0 		"/>
		
			<linearGradient id="SVGID_10_" gradientUnits="userSpaceOnUse" x1="31.6471" y1="17.8894" x2="34.4171" y2="4.4894" gradientTransform="matrix(1 0 0 -1 0 36)">
			<stop  offset="0" style="stop-color:#0BC2C6"/>
			<stop  offset="0.18" style="stop-color:#2AC5BB"/>
			<stop  offset="0.57" style="stop-color:#68CCA4"/>
			<stop  offset="0.85" style="stop-color:#8FCF96"/>
			<stop  offset="1" style="stop-color:#9ED191"/>
		</linearGradient>
		<polygon class="st10" points="31.5,18.7 25.4,19.8 34.2,32.5 38.1,17.3 		"/>
		
			<linearGradient id="SVGID_11_" gradientUnits="userSpaceOnUse" x1="34.632" y1="18.5004" x2="37.402" y2="5.1104" gradientTransform="matrix(1 0 0 -1 0 36)">
			<stop  offset="0" style="stop-color:#0BC2C6"/>
			<stop  offset="0.18" style="stop-color:#2AC5BB"/>
			<stop  offset="0.57" style="stop-color:#68CCA4"/>
			<stop  offset="0.85" style="stop-color:#8FCF96"/>
			<stop  offset="1" style="stop-color:#9ED191"/>
		</linearGradient>
		<polygon class="st11" points="31.7,18.7 38.1,17.3 34.2,32.5 		"/>
		<linearGradient id="SVGID_12_" gradientUnits="userSpaceOnUse" x1="47.82" y1="16.54" x2="65.24" y2="16.54">
			<stop  offset="0" style="stop-color:#0052CC"/>
			<stop  offset="1" style="stop-color:#63C6F1"/>
		</linearGradient>
		<path class="st12" d="M59.9,21.2h-6.8l-1.5,4.3h-3.9l6.8-18.1h3.9l6.7,18.1h-3.8L59.9,21.2z M58.8,18.1l-2.3-6.8l-2.3,6.8H58.8z"
			/>
		<linearGradient id="SVGID_13_" gradientUnits="userSpaceOnUse" x1="66.18" y1="19.2948" x2="78.1604" y2="19.2948">
			<stop  offset="0" style="stop-color:#0052CC"/>
			<stop  offset="1" style="stop-color:#63C6F1"/>
		</linearGradient>
		<path class="st13" d="M78.2,18.9v6.7h-3.4v-6.4c0-1.9-1.2-2.8-2.3-2.8c-1.4-0.1-2.7,1-2.8,2.4c0,0.1,0,0.3,0,0.4v6.3h-3.5V13.3
			h3.4v2.1c0.6-1.5,2.1-2.4,3.7-2.4C76.5,13,78.2,15.2,78.2,18.9z"/>
		<linearGradient id="SVGID_14_" gradientUnits="userSpaceOnUse" x1="80.0514" y1="19.4435" x2="93.49" y2="19.4435">
			<stop  offset="0" style="stop-color:#0052CC"/>
			<stop  offset="1" style="stop-color:#63C6F1"/>
		</linearGradient>
		<path class="st14" d="M93.5,13.3v12.2H90v-1.5c-1,1.2-2.4,1.8-3.9,1.8c-3.4,0-6-2.8-6-6.1c0-0.1,0-0.2,0-0.3
			c-0.2-3.3,2.4-6.2,5.7-6.4c0.1,0,0.2,0,0.3,0c1.5-0.1,3,0.6,3.9,1.8v-1.5H93.5z M89.9,19.4c0-1.7-1.4-3.2-3.2-3.1
			c-1.7,0-3.2,1.4-3.2,3.1c0,0,0,0,0,0.1c0,1.8,1.4,3.2,3.2,3.2S89.9,21.2,89.9,19.4z"/>
		<linearGradient id="SVGID_15_" gradientUnits="userSpaceOnUse" x1="95.5374" y1="19.4068" x2="108.4413" y2="19.4068">
			<stop  offset="0" style="stop-color:#0052CC"/>
			<stop  offset="1" style="stop-color:#63C6F1"/>
		</linearGradient>
		<path class="st15" d="M108.4,20.6h-9.2c0.4,1.4,1.7,2.3,3.2,2.2c1.2,0,2.4-0.5,3.2-1.4l2,2c-1.4,1.6-3.4,2.5-5.5,2.4
			c-3.4,0.2-6.3-2.4-6.5-5.8c0-0.2,0-0.3,0-0.5c-0.1-3.5,2.6-6.4,6.1-6.5c0.1,0,0.3,0,0.4,0c3.4-0.1,6.2,2.5,6.4,5.9
			c0,0.1,0,0.3,0,0.4C108.4,19.6,108.4,20,108.4,20.6z M105,18.3c-0.1-1.4-1.4-2.5-2.9-2.3c0,0,0,0,0,0c-1.4-0.1-2.7,0.9-3,2.3
			L105,18.3z"/>
		<linearGradient id="SVGID_16_" gradientUnits="userSpaceOnUse" x1="110.44" y1="16.195" x2="122.47" y2="16.195">
			<stop  offset="0" style="stop-color:#0052CC"/>
			<stop  offset="1" style="stop-color:#63C6F1"/>
		</linearGradient>
		<path class="st16" d="M118.2,25.6l-4.3-5.3v5.3h-3.4V6.8h3.4v10.3l3.1-3.7h4.4l-4.8,5.4l5.9,6.9H118.2z"/>
	</g>
</g>
</svg>
